Coordinates
version=1
nRows=21
nColumns=19
inDegrees=yes

Units are S.I. units (second, meters, Newtons, ...)
If the header above contains a line with 'inDegrees', this indicates whether rotational values are in degrees (yes) or radians (no).

endheader
time	pelvis_tilt	pelvis_list	pelvis_rotation	pelvis_tx	pelvis_ty	pelvis_tz	hip_flexion_r	hip_adduction_r	hip_rotation_r	knee_angle_r	knee_angle_r_beta	ankle_angle_r	hip_flexion_l	hip_adduction_l	hip_rotation_l	knee_angle_l	knee_angle_l_beta	ankle_angle_l
     17.10666667	     -9.31656323	      1.56604466	      2.26987271	      2.18957022	      1.03114455	      1.04536549	     -7.14290567	     -2.14198828	     -9.01791768	     47.95693560	      0.83700643	     -6.74553217	     28.45148274	      4.91179565	     -4.35466677	     13.73945347	      0.23979870	      6.95808692
     17.11333333	     -9.15503732	      1.52245363	      2.30090560	      2.18864428	      1.02700875	      1.04517102	     -5.97020052	     -1.99069493	     -7.95631150	     52.17515487	      0.91062824	     -6.45597970	     28.80756160	      4.80950642	     -4.46508446	     15.72683614	      0.27448507	      6.55338149
     17.12000000	     -8.98174417	      1.50984521	      2.36249896	      2.18750741	      1.02244786	      1.04519114	     -4.74344038	     -1.83159660	     -7.03486765	     56.40912832	      0.98452502	     -6.16935525	     29.30773130	      4.67783191	     -4.69054609	     18.24113730	      0.31836791	      6.28555209
     17.12666667	     -8.75543660	      1.51164552	      2.46962471	      2.18617142	      1.01753024	      1.04532699	     -3.52481376	     -1.67601232	     -6.30134553	     60.61379551	      1.05791030	     -5.87353421	     29.85870011	      4.51587811	     -4.97410184	     21.13731823	      0.36891580	      6.20158690
     17.13333333	     -8.46376198	      1.52924127	      2.60439165	      2.18466529	      1.01234195	      1.04556750	     -2.34028775	     -1.55639576	     -5.75942581	     64.75326864	      1.13015774	     -5.55245503	     30.39082700	      4.33109266	     -5.26560048	     24.26231508	      0.42345728	      6.37285280
     17.14000000	     -7.65077056	      1.80124779	      2.83554382	      2.18325417	      1.00759860	      1.04575729	     -1.78277199	     -1.78419551	     -5.59042409	     68.70396295	      1.19911036	     -5.11096482	     30.23435011	      4.41205087	     -5.50267462	     27.24834683	      0.47557337	      6.80418307
     17.14666667	     -7.99546799	      1.63835767	      3.00853891	      2.18125963	      1.00114795	      1.04602770	      0.23453937	     -1.56719127	     -5.27825919	     72.75330910	      1.26978479	     -4.65793182	     31.51039085	      4.05603555	     -5.60036141	     30.62471353	      0.53450208	      7.58183570
     17.15333333	     -7.05675500	      2.08927769	      3.32002792	      2.17970788	      0.99654053	      1.04600129	      0.67323778	     -2.17674198	     -5.49119982	     76.42585800	      1.33388286	     -4.19281965	     31.00936526	      4.37645090	     -5.66845760	     33.32259930	      0.58158907	      8.55695033
     17.16000000	     -7.51458137	      1.84724578	      3.44972972	      2.17736831	      0.99008454	      1.04623182	      2.90863961	     -1.97278335	     -5.28729491	     80.17817481	      1.39937314	     -3.53478469	     32.26064562	      3.96088292	     -5.64185488	     36.46630607	      0.63645711	      9.92165104
     17.16666667	     -7.49303117	      2.04239627	      3.72581559	      2.17531089	      0.98466139	      1.04599693	      4.51796876	     -2.44124350	     -5.46296343	     83.65051530	      1.45997691	     -2.85353215	     32.63748413	      4.11671323	     -5.52528088	     38.97372223	      0.68021977	     11.38171821
     17.17333333	     -6.89202850	      2.42665683	      3.99691089	      2.17345127	      0.98052920	      1.04560847	      5.44785136	     -3.15869822	     -5.68918907	     86.79103228	      1.51478927	     -2.17128845	     32.12796787	      4.47605510	     -5.41706154	     41.03613107	      0.71621560	     12.97779549
     17.18000000	     -7.52828923	      2.48275424	      4.16774718	      2.17118488	      0.97521881	      1.04519234	      7.92845235	     -3.60235750	     -5.72022152	     89.91648623	      1.56933874	     -1.44998488	     32.93597113	      4.56403535	     -5.25163640	     43.04999197	      0.75136410	     14.57250226
     17.18666667	     -7.00034171	      2.79090549	      4.39477162	      2.16940820	      0.97216204	      1.04448716	      9.01013569	     -4.36054020	     -5.92066365	     92.53887586	      1.61510807	     -0.88772425	     32.14327593	      4.91457167	     -5.07534515	     44.49079884	      0.77651093	     16.21204951
     17.19333333	     -6.87174622	      3.08563292	      4.53273645	      2.16772077	      0.96926570	      1.04378701	     10.59094371	     -5.12089346	     -5.96357650	     94.94795289	      1.65715440	     -0.14527819	     31.58701282	      5.27183831	     -4.92126133	     45.60940028	      0.79603420	     17.85344184
     17.20000000	     -7.89225251	      3.19137494	      4.55410655	      2.16570762	      0.96546287	      1.04311283	     13.65971757	     -5.67718861	     -5.70896879	     97.32908765	      1.69871304	      0.35671365	     32.18822077	      5.48015797	     -4.80265175	     46.54767956	      0.81241027	     19.11804537
     17.20666667	     -7.55154597	      3.31359237	      4.68872946	      2.16432497	      0.96422159	      1.04228135	     15.05439468	     -6.21634443	     -5.74629070	     99.06336780	      1.72898194	      0.78433854	     31.06711273	      5.69729209	     -4.53049808	     47.08964833	      0.82186941	     20.41375107
     17.21333333	     -7.37648078	      3.42757790	      4.73943148	      2.16307655	      0.96345580	      1.04145097	     16.67803178	     -6.70227108	     -5.64239886	    100.53016186	      1.75458232	      1.20477216	     29.94102253	      5.91213536	     -4.25667461	     47.30862101	      0.82569120	     21.54453973
     17.22000000	     -7.44997850	      3.57998403	      4.72189223	      2.16214781	      0.96310514	      1.04077220	     18.58313527	     -7.18301864	     -5.43009302	    101.70540477	      1.77509418	      1.61889325	     28.86070378	      6.12111496	     -4.13296366	     47.15133376	      0.82294602	     22.56627085
     17.22666667	     -7.89206592	      3.71759439	      4.52044517	      2.16127139	      0.96293971	      1.04021617	     20.98377950	     -7.60968234	     -5.01294038	    102.63752245	      1.79136270	      1.86647609	     28.06314784	      6.26031990	     -4.17544986	     46.76249928	      0.81615958	     23.08201842
     17.23333333	     -7.86240646	      3.53421458	      4.53966570	      2.16061212	      0.96393869	      1.03956017	     22.71128068	     -7.63924087	     -4.98664030	    103.06750954	      1.79886739	      2.11343339	     26.70286837	      6.15544623	     -3.83458317	     46.28141659	      0.80776310	     23.69852984
     17.24000000	     -7.89587433	      3.32931466	      4.53028912	      2.16014834	      0.96545587	      1.03907010	     24.46051283	     -7.56705920	     -4.94898088	    103.17745041	      1.80078622	      2.34495719	     25.28750576	      6.00439385	     -3.52032076	     45.55951377	      0.79516352	     24.09752414
